<mxfile host="app.diagrams.net" modified="2023-07-31T16:28:02.983Z" agent="Mozilla/5.0 (Windows NT 10.0; Win64; x64; rv:109.0) Gecko/20100101 Firefox/115.0" etag="HIVXB_IqPef_IAxKjbVt" version="21.6.5" type="device">
  <diagram name="Seite-1" id="F2YSt0ugEWK8EtsV9iVg">
    <mxGraphModel dx="1504" dy="1983" grid="1" gridSize="10" guides="1" tooltips="1" connect="1" arrows="1" fold="1" page="1" pageScale="1" pageWidth="827" pageHeight="1169" math="0" shadow="0">
      <root>
        <mxCell id="0" />
        <mxCell id="1" parent="0" />
        <mxCell id="IOZEuDeHRYPB6JF_zCbt-19" value="" style="edgeStyle=orthogonalEdgeStyle;rounded=0;orthogonalLoop=1;jettySize=auto;html=1;" edge="1" parent="1" source="IOZEuDeHRYPB6JF_zCbt-20" target="IOZEuDeHRYPB6JF_zCbt-32">
          <mxGeometry relative="1" as="geometry" />
        </mxCell>
        <mxCell id="IOZEuDeHRYPB6JF_zCbt-20" value="Klick auf den Lernen- Button auf der Navbar" style="ellipse;whiteSpace=wrap;html=1;" vertex="1" parent="1">
          <mxGeometry x="380" y="-1070" width="138" height="90" as="geometry" />
        </mxCell>
        <mxCell id="IOZEuDeHRYPB6JF_zCbt-21" value="Bestehende Frage bearbeiten" style="text;html=1;strokeColor=none;fillColor=none;align=center;verticalAlign=middle;whiteSpace=wrap;rounded=0;" vertex="1" parent="1">
          <mxGeometry x="357" y="-1110" width="193" height="30" as="geometry" />
        </mxCell>
        <mxCell id="IOZEuDeHRYPB6JF_zCbt-31" value="" style="edgeStyle=orthogonalEdgeStyle;rounded=0;orthogonalLoop=1;jettySize=auto;html=1;" edge="1" parent="1" source="IOZEuDeHRYPB6JF_zCbt-32" target="IOZEuDeHRYPB6JF_zCbt-34">
          <mxGeometry relative="1" as="geometry" />
        </mxCell>
        <mxCell id="IOZEuDeHRYPB6JF_zCbt-32" value="Klick auf das Fach wo die Frage bearbeitet werden soll" style="whiteSpace=wrap;html=1;" vertex="1" parent="1">
          <mxGeometry x="349" y="-955" width="201" height="70.5" as="geometry" />
        </mxCell>
        <mxCell id="IOZEuDeHRYPB6JF_zCbt-38" value="" style="edgeStyle=orthogonalEdgeStyle;rounded=0;orthogonalLoop=1;jettySize=auto;html=1;" edge="1" parent="1" source="IOZEuDeHRYPB6JF_zCbt-34" target="IOZEuDeHRYPB6JF_zCbt-37">
          <mxGeometry relative="1" as="geometry" />
        </mxCell>
        <mxCell id="IOZEuDeHRYPB6JF_zCbt-34" value="Klick auf das Themengebiet wo die Frage bearbeitet werden soll" style="whiteSpace=wrap;html=1;" vertex="1" parent="1">
          <mxGeometry x="349" y="-849.25" width="201" height="60" as="geometry" />
        </mxCell>
        <mxCell id="IOZEuDeHRYPB6JF_zCbt-40" value="" style="edgeStyle=orthogonalEdgeStyle;rounded=0;orthogonalLoop=1;jettySize=auto;html=1;" edge="1" parent="1" source="IOZEuDeHRYPB6JF_zCbt-37" target="IOZEuDeHRYPB6JF_zCbt-39">
          <mxGeometry relative="1" as="geometry" />
        </mxCell>
        <mxCell id="IOZEuDeHRYPB6JF_zCbt-37" value="Klick auf die Frage um in die Detail Ansicht zu kommen" style="whiteSpace=wrap;html=1;" vertex="1" parent="1">
          <mxGeometry x="359" y="-760" width="181" height="60" as="geometry" />
        </mxCell>
        <mxCell id="IOZEuDeHRYPB6JF_zCbt-44" value="" style="edgeStyle=orthogonalEdgeStyle;rounded=0;orthogonalLoop=1;jettySize=auto;html=1;" edge="1" parent="1" source="IOZEuDeHRYPB6JF_zCbt-39" target="IOZEuDeHRYPB6JF_zCbt-43">
          <mxGeometry relative="1" as="geometry" />
        </mxCell>
        <mxCell id="IOZEuDeHRYPB6JF_zCbt-39" value="Klick auf den Bearbeitungs-Button um die Anzeigefelder zu EIngabefelder zu machen" style="whiteSpace=wrap;html=1;" vertex="1" parent="1">
          <mxGeometry x="319" y="-665" width="261" height="60" as="geometry" />
        </mxCell>
        <mxCell id="IOZEuDeHRYPB6JF_zCbt-41" value="Veränderung zurück auf Anzeige" style="ellipse;whiteSpace=wrap;html=1;" vertex="1" parent="1">
          <mxGeometry x="369" y="-499" width="161" height="111" as="geometry" />
        </mxCell>
        <mxCell id="IOZEuDeHRYPB6JF_zCbt-42" value="" style="edgeStyle=orthogonalEdgeStyle;rounded=0;orthogonalLoop=1;jettySize=auto;html=1;" edge="1" parent="1" source="IOZEuDeHRYPB6JF_zCbt-43" target="IOZEuDeHRYPB6JF_zCbt-41">
          <mxGeometry relative="1" as="geometry" />
        </mxCell>
        <mxCell id="IOZEuDeHRYPB6JF_zCbt-43" value="Klick au fden Speichern Button" style="whiteSpace=wrap;html=1;" vertex="1" parent="1">
          <mxGeometry x="389.5" y="-577" width="120" height="60" as="geometry" />
        </mxCell>
      </root>
    </mxGraphModel>
  </diagram>
</mxfile>
